<svg xmlns="http://www.w3.org/2000/svg" viewBox="0 0 23 23">
  <defs>
    <style>
      .cls-1 {
        fill: #94e7ef;
      }

      .cls-2 {
        fill: #ffe781;
      }

      .cls-3 {
        fill: #9b8ccc;
      }

      .cls-4 {
        fill: #413d4a;
      }
    </style>
  </defs>
  <g id="Icon" transform="translate(0 0)">
    <path id="Path_435" data-name="Path 435" class="cls-1" d="M400.762,122.033l-4.755,3.782-.007-.008v-7.441Z" transform="translate(-378.211 -113.049)"/>
    <path id="Path_436" data-name="Path 436" class="cls-2" d="M128.435,79.609l.007.008-5.721,4.55a.913.913,0,0,1-1.15,0l-5.721-4.55.007-.008V70h12.578Z" transform="translate(-110.646 -66.852)"/>
    <path id="Path_437" data-name="Path 437" class="cls-1" d="M182.514,12.694H175.26l3.052-2.491a.913.913,0,0,1,1.15,0Z" transform="translate(-167.387 -9.55)"/>
    <path id="Path_438" data-name="Path 438" class="cls-3" d="M21.626,208.327a.913.913,0,0,1-1.15,0L10,200v12.668a.9.9,0,0,0,.9.9H31.2a.9.9,0,0,0,.9-.9V200Z" transform="translate(-9.551 -191.012)"/>
    <path id="Path_439" data-name="Path 439" class="cls-1" d="M14.762,118.366v7.441l-.007.008L10,122.033Z" transform="translate(-9.551 -113.049)"/>
    <path id="Path_440" data-name="Path 440" class="cls-4" d="M326.449,452a.449.449,0,1,0,.449.449A.449.449,0,0,0,326.449,452Z" transform="translate(-311.355 -431.691)"/>
    <path id="Path_441" data-name="Path 441" class="cls-4" d="M171.84,452h-5.391a.449.449,0,0,0,0,.9h5.391a.449.449,0,1,0,0-.9Z" transform="translate(-158.543 -431.691)"/>
    <path id="Path_442" data-name="Path 442" class="cls-4" d="M166.449,180.894h7.188a.449.449,0,0,0,0-.9h-7.188a.449.449,0,0,0,0,.9Z" transform="translate(-158.543 -171.91)"/>
    <path id="Path_443" data-name="Path 443" class="cls-4" d="M166.449,120.894h7.188a.449.449,0,0,0,0-.9h-7.188a.449.449,0,0,0,0,.9Z" transform="translate(-158.543 -114.606)"/>
    <path id="Path_444" data-name="Path 444" class="cls-4" d="M166.449,240.894h3.594a.449.449,0,1,0,0-.9h-3.594a.449.449,0,0,0,0,.9Z" transform="translate(-158.543 -229.215)"/>
    <path id="Path_445" data-name="Path 445" class="cls-4" d="M23,8.985a.453.453,0,0,0-.17-.348l0,0L18.239,5.1V3.148a.449.449,0,0,0-.449-.449h-2.5L12.359.309a1.363,1.363,0,0,0-1.718,0L7.713,2.7h-2.5a.449.449,0,0,0-.449.449V5.1L.175,8.632l0,0A.453.453,0,0,0,0,8.985V21.656A1.349,1.349,0,0,0,1.348,23h20.3A1.349,1.349,0,0,0,23,21.656V8.985Zm-.9,12.573-6.579-6.406L22.1,9.919ZM.9,9.919l6.579,5.232L.9,21.557Zm7.288,5.8,2.457,1.954a1.363,1.363,0,0,0,1.713,0l2.457-1.954,6.563,6.39H1.623ZM21.822,8.994l-3.584,2.85V6.234ZM11.209,1a.462.462,0,0,1,.582,0L13.866,2.7H9.134ZM17.34,3.6v8.961L11.8,16.968l0,0a.461.461,0,0,1-.582,0l0,0L5.66,12.558V3.6ZM4.762,6.234v5.61L1.178,8.994Z" transform="translate(0 -0.004)"/>
  </g>
</svg>
