<svg xmlns="http://www.w3.org/2000/svg" viewBox="0 0 25.5 25.5">
  <defs>
    <style>
      .cls-1, .cls-3, .cls-4 {
        fill: #413d4a;
      }

      .cls-1, .cls-3 {
        stroke: #413d4a;
      }

      .cls-1 {
        stroke-width: 0.5px;
      }

      .cls-2 {
        fill: #9b8ccc;
      }

      .cls-3 {
        stroke-width: 0.1px;
      }

      .cls-5 {
        fill: #ffe781;
      }

      .cls-6 {
        fill: #ffcc73;
      }

      .cls-7 {
        fill: #94e7ef;
      }
    </style>
  </defs>
  <g id="Icon" transform="translate(0.25 0.25)">
    <path id="Path_394" data-name="Path 394" class="cls-1" d="M28.68,2.659V19.88a2.685,2.685,0,0,1-2.705,2.659H10.461A3.465,3.465,0,0,1,3.68,21.6V5.266A2.357,2.357,0,0,1,5.8,2.942V2.659A2.685,2.685,0,0,1,8.5,0H25.975A2.685,2.685,0,0,1,28.68,2.659ZM28.152,19.88V2.659A2.161,2.161,0,0,0,25.975.519H8.5a2.161,2.161,0,0,0-2.177,2.14V19.88A2.161,2.161,0,0,0,8.5,22.02h1.536a2.821,2.821,0,0,0,.031-.419v-.123H8.841A1.739,1.739,0,0,1,7.09,19.757V2.783A1.739,1.739,0,0,1,8.841,1.061h2.981a1.739,1.739,0,0,1,1.752,1.722V19.757a1.739,1.739,0,0,1-1.752,1.722H10.6V21.6a3.407,3.407,0,0,1-.027.419H25.975A2.161,2.161,0,0,0,28.152,19.88Zm-15.106-.123V2.783a1.215,1.215,0,0,0-1.224-1.2H8.841a1.215,1.215,0,0,0-1.224,1.2V19.757a1.215,1.215,0,0,0,1.224,1.2h2.981A1.215,1.215,0,0,0,13.046,19.757ZM9.908,22.539H8.5A2.685,2.685,0,0,1,5.8,19.88V3.465a1.832,1.832,0,0,0-1.587,1.8V21.6a2.937,2.937,0,0,0,5.7.938Z" transform="translate(-3.68)"/>
    <path id="Path_395" data-name="Path 395" class="cls-2" d="M70.579,11.14V28.361A2.161,2.161,0,0,1,68.4,30.5H53a3.408,3.408,0,0,0,.027-.419V29.96h1.227A1.739,1.739,0,0,0,56,28.238V11.264a1.739,1.739,0,0,0-1.752-1.722H51.269a1.739,1.739,0,0,0-1.752,1.722V28.238a1.739,1.739,0,0,0,1.752,1.722h1.226v.123a2.821,2.821,0,0,1-.031.419H50.927a2.161,2.161,0,0,1-2.177-2.14V11.14A2.161,2.161,0,0,1,50.927,9H68.4A2.161,2.161,0,0,1,70.579,11.14ZM69.9,18.476V11.264a1.739,1.739,0,0,0-1.752-1.722H61.005a1.739,1.739,0,0,0-1.752,1.722v7.213A1.739,1.739,0,0,0,61.005,20.2h7.142A1.739,1.739,0,0,0,69.9,18.476Zm-.008,9.6v-.868a.616.616,0,0,0-.621-.61H67.321a.616.616,0,0,0-.621.61v.868a.616.616,0,0,0,.621.61h1.948A.616.616,0,0,0,69.89,28.076Zm0-2.8v-.868a.616.616,0,0,0-.621-.61H67.321a.616.616,0,0,0-.621.61v.868a.616.616,0,0,0,.621.61h1.948A.616.616,0,0,0,69.89,25.277Zm0-2.843v-.868a.616.616,0,0,0-.621-.61H67.321a.616.616,0,0,0-.621.61v.868a.616.616,0,0,0,.621.61h1.948A.616.616,0,0,0,69.89,22.434Zm-3.719,5.643v-.868a.616.616,0,0,0-.621-.61H63.6a.616.616,0,0,0-.621.61v.868a.616.616,0,0,0,.621.61H65.55A.616.616,0,0,0,66.171,28.076Zm0-2.8v-.868a.616.616,0,0,0-.621-.61H63.6a.616.616,0,0,0-.621.61v.868a.616.616,0,0,0,.621.61H65.55A.616.616,0,0,0,66.171,25.277Zm0-2.843v-.868a.616.616,0,0,0-.621-.61H63.6a.616.616,0,0,0-.621.61v.868a.616.616,0,0,0,.621.61H65.55A.616.616,0,0,0,66.171,22.434Zm-3.719,5.643v-.868a.616.616,0,0,0-.621-.61H59.883a.616.616,0,0,0-.621.61v.868a.616.616,0,0,0,.621.61h1.948A.616.616,0,0,0,62.452,28.076Zm0-2.8v-.868a.616.616,0,0,0-.621-.61H59.883a.616.616,0,0,0-.621.61v.868a.616.616,0,0,0,.621.61h1.948A.616.616,0,0,0,62.452,25.277Zm0-2.843v-.868a.616.616,0,0,0-.621-.61H59.883a.616.616,0,0,0-.621.61v.868a.616.616,0,0,0,.621.61h1.948A.616.616,0,0,0,62.452,22.434Z" transform="translate(-46.107 -8.481)"/>
    <path id="Path_396" data-name="Path 396" class="cls-3" d="M238.515,20.122v7.213a1.739,1.739,0,0,1-1.752,1.722h-7.142a1.739,1.739,0,0,1-1.752-1.722V20.122a1.739,1.739,0,0,1,1.752-1.722h7.142A1.739,1.739,0,0,1,238.515,20.122Zm-.528,7.213V20.122a1.215,1.215,0,0,0-1.224-1.2h-7.142a1.215,1.215,0,0,0-1.224,1.2v7.213a1.215,1.215,0,0,0,1.224,1.2h7.142A1.215,1.215,0,0,0,237.987,27.334Z" transform="translate(-214.724 -17.339)"/>
    <path id="Path_397" data-name="Path 397" class="cls-4" d="M358.05,314.9v.868a.616.616,0,0,1-.621.61h-1.948a.617.617,0,0,1-.621-.61V314.9a.616.616,0,0,1,.621-.61h1.948A.616.616,0,0,1,358.05,314.9Zm-.528.868V314.9a.093.093,0,0,0-.093-.091h-1.948a.092.092,0,0,0-.093.091v.868a.092.092,0,0,0,.093.092h1.948A.093.093,0,0,0,357.522,315.768Z" transform="translate(-334.267 -296.173)"/>
    <path id="Path_398" data-name="Path 398" class="cls-4" d="M358.05,266.32v.868a.616.616,0,0,1-.621.61h-1.948a.616.616,0,0,1-.621-.61v-.868a.616.616,0,0,1,.621-.61h1.948A.616.616,0,0,1,358.05,266.32Zm-.528.868v-.868a.093.093,0,0,0-.093-.092h-1.948a.092.092,0,0,0-.093.092v.868a.092.092,0,0,0,.093.091h1.948A.093.093,0,0,0,357.522,267.189Z" transform="translate(-334.267 -250.393)"/>
    <path id="Path_399" data-name="Path 399" class="cls-4" d="M358.05,217v.868a.616.616,0,0,1-.621.61h-1.948a.617.617,0,0,1-.621-.61V217a.617.617,0,0,1,.621-.61h1.948A.616.616,0,0,1,358.05,217Zm-.528.868V217a.093.093,0,0,0-.093-.092h-1.948a.093.093,0,0,0-.093.092v.868a.092.092,0,0,0,.093.092h1.948A.093.093,0,0,0,357.522,217.869Z" transform="translate(-334.267 -203.916)"/>
    <path id="Path_400" data-name="Path 400" class="cls-5" d="M246.459,28.6v7.213a1.215,1.215,0,0,1-1.224,1.2h-7.142a1.215,1.215,0,0,1-1.224-1.2V28.6a1.215,1.215,0,0,1,1.224-1.2h7.142A1.215,1.215,0,0,1,246.459,28.6Zm-.473,2.039V28.857a.925.925,0,0,0-.931-.915h-6.78a.925.925,0,0,0-.931.915v1.785a.925.925,0,0,0,.931.915h6.78A.925.925,0,0,0,245.986,30.643Zm0,1.632a.262.262,0,0,0-.264-.259h-1.079a.259.259,0,1,0,0,.519h1.079A.262.262,0,0,0,245.986,32.274Zm0,1.2a.262.262,0,0,0-.264-.259h-1.079a.259.259,0,1,0,0,.519h1.079A.262.262,0,0,0,245.986,33.477Zm0,1.2a.262.262,0,0,0-.264-.259h-1.079a.259.259,0,1,0,0,.519h1.079A.262.262,0,0,0,245.986,34.679Zm0,1.2a.262.262,0,0,0-.264-.259h-1.079a.259.259,0,1,0,0,.519h1.079A.262.262,0,0,0,245.986,35.881Zm-7.036-3.606a.262.262,0,0,0-.264-.259h-1.079a.259.259,0,1,0,0,.519h1.079A.261.261,0,0,0,238.951,32.274Zm0,1.2a.261.261,0,0,0-.264-.259h-1.079a.259.259,0,1,0,0,.519h1.079A.262.262,0,0,0,238.951,33.477Zm0,1.2a.261.261,0,0,0-.264-.259h-1.079a.259.259,0,1,0,0,.519h1.079A.261.261,0,0,0,238.951,34.679Zm0,1.2a.262.262,0,0,0-.264-.259h-1.079a.259.259,0,1,0,0,.519h1.079A.261.261,0,0,0,238.951,35.881Z" transform="translate(-223.196 -25.821)"/>
    <path id="Path_401" data-name="Path 401" class="cls-5" d="M365.994,323.381v.868a.093.093,0,0,1-.093.092h-1.948a.092.092,0,0,1-.093-.092v-.868a.092.092,0,0,1,.093-.091H365.9A.093.093,0,0,1,365.994,323.381Z" transform="translate(-342.739 -304.654)"/>
    <path id="Path_402" data-name="Path 402" class="cls-5" d="M365.994,274.8v.868a.093.093,0,0,1-.093.091h-1.948a.092.092,0,0,1-.093-.091V274.8a.092.092,0,0,1,.093-.092H365.9A.093.093,0,0,1,365.994,274.8Z" transform="translate(-342.739 -258.874)"/>
    <path id="Path_403" data-name="Path 403" class="cls-5" d="M365.994,225.482v.868a.093.093,0,0,1-.093.092h-1.948a.092.092,0,0,1-.093-.092v-.868a.093.093,0,0,1,.093-.092H365.9A.093.093,0,0,1,365.994,225.482Z" transform="translate(-342.739 -212.397)"/>
    <path id="Path_404" data-name="Path 404" class="cls-3" d="M253.592,37.715V39.5a.925.925,0,0,1-.931.915h-6.78a.925.925,0,0,1-.931-.915V37.715a.925.925,0,0,1,.931-.915h6.78A.925.925,0,0,1,253.592,37.715Zm-.528,1.785V37.715a.4.4,0,0,0-.4-.4h-6.78a.4.4,0,0,0-.4.4V39.5a.4.4,0,0,0,.4.4h6.78A.4.4,0,0,0,253.065,39.5Z" transform="translate(-230.802 -34.679)"/>
    <path id="Path_405" data-name="Path 405" class="cls-3" d="M366.273,107.46a.259.259,0,1,1,0,.519h-1.079a.259.259,0,1,1,0-.519Z" transform="translate(-343.746 -101.265)"/>
    <path id="Path_406" data-name="Path 406" class="cls-3" d="M366.273,128.32a.259.259,0,1,1,0,.519h-1.079a.259.259,0,1,1,0-.519Z" transform="translate(-343.746 -120.923)"/>
    <path id="Path_407" data-name="Path 407" class="cls-3" d="M366.273,149.17a.259.259,0,1,1,0,.519h-1.079a.259.259,0,1,1,0-.519Z" transform="translate(-343.746 -140.571)"/>
    <path id="Path_408" data-name="Path 408" class="cls-3" d="M366.273,170.02a.259.259,0,1,1,0,.519h-1.079a.259.259,0,1,1,0-.519Z" transform="translate(-343.746 -160.219)"/>
    <path id="Path_409" data-name="Path 409" class="cls-6" d="M261.537,46.2v1.785a.4.4,0,0,1-.4.4h-6.78a.4.4,0,0,1-.4-.4V46.2a.4.4,0,0,1,.4-.4h6.78A.4.4,0,0,1,261.537,46.2Z" transform="translate(-239.274 -43.16)"/>
    <path id="Path_410" data-name="Path 410" class="cls-4" d="M294.63,314.9v.868a.617.617,0,0,1-.621.61h-1.948a.616.616,0,0,1-.621-.61V314.9a.616.616,0,0,1,.621-.61h1.948A.616.616,0,0,1,294.63,314.9Zm-.528.868V314.9a.093.093,0,0,0-.093-.091h-1.948a.092.092,0,0,0-.093.091v.868a.092.092,0,0,0,.093.092h1.948A.093.093,0,0,0,294.1,315.768Z" transform="translate(-274.566 -296.173)"/>
    <path id="Path_411" data-name="Path 411" class="cls-4" d="M294.63,266.32v.868a.616.616,0,0,1-.621.61h-1.948a.616.616,0,0,1-.621-.61v-.868a.616.616,0,0,1,.621-.61h1.948A.616.616,0,0,1,294.63,266.32Zm-.528.868v-.868a.093.093,0,0,0-.093-.092h-1.948a.092.092,0,0,0-.093.092v.868a.092.092,0,0,0,.093.091h1.948A.093.093,0,0,0,294.1,267.189Z" transform="translate(-274.566 -250.393)"/>
    <path id="Path_412" data-name="Path 412" class="cls-4" d="M294.63,217v.868a.616.616,0,0,1-.621.61h-1.948a.616.616,0,0,1-.621-.61V217a.616.616,0,0,1,.621-.61h1.948A.617.617,0,0,1,294.63,217Zm-.528.868V217a.093.093,0,0,0-.093-.092h-1.948a.093.093,0,0,0-.093.092v.868a.092.092,0,0,0,.093.092h1.948A.093.093,0,0,0,294.1,217.869Z" transform="translate(-274.566 -203.916)"/>
    <path id="Path_413" data-name="Path 413" class="cls-5" d="M302.574,323.381v.868a.093.093,0,0,1-.093.092h-1.948a.092.092,0,0,1-.093-.092v-.868a.092.092,0,0,1,.093-.091h1.948A.093.093,0,0,1,302.574,323.381Z" transform="translate(-283.038 -304.654)"/>
    <path id="Path_414" data-name="Path 414" class="cls-5" d="M302.574,274.8v.868a.092.092,0,0,1-.093.091h-1.948a.092.092,0,0,1-.093-.091V274.8a.092.092,0,0,1,.093-.092h1.948A.093.093,0,0,1,302.574,274.8Z" transform="translate(-283.038 -258.874)"/>
    <path id="Path_415" data-name="Path 415" class="cls-5" d="M302.574,225.482v.868a.093.093,0,0,1-.093.092h-1.948a.092.092,0,0,1-.093-.092v-.868a.093.093,0,0,1,.093-.092h1.948A.093.093,0,0,1,302.574,225.482Z" transform="translate(-283.038 -212.397)"/>
    <path id="Path_416" data-name="Path 416" class="cls-4" d="M231.21,314.9v.868a.616.616,0,0,1-.621.61h-1.948a.616.616,0,0,1-.621-.61V314.9a.616.616,0,0,1,.621-.61h1.948A.616.616,0,0,1,231.21,314.9Zm-.528.868V314.9a.092.092,0,0,0-.093-.091h-1.948a.092.092,0,0,0-.093.091v.868a.092.092,0,0,0,.093.092h1.948A.092.092,0,0,0,230.682,315.768Z" transform="translate(-214.865 -296.173)"/>
    <path id="Path_417" data-name="Path 417" class="cls-4" d="M231.21,266.32v.868a.616.616,0,0,1-.621.61h-1.948a.616.616,0,0,1-.621-.61v-.868a.616.616,0,0,1,.621-.61h1.948A.616.616,0,0,1,231.21,266.32Zm-.528.868v-.868a.092.092,0,0,0-.093-.092h-1.948a.092.092,0,0,0-.093.092v.868a.092.092,0,0,0,.093.091h1.948A.092.092,0,0,0,230.682,267.189Z" transform="translate(-214.865 -250.393)"/>
    <path id="Path_418" data-name="Path 418" class="cls-4" d="M231.21,217v.868a.616.616,0,0,1-.621.61h-1.948a.616.616,0,0,1-.621-.61V217a.616.616,0,0,1,.621-.61h1.948A.616.616,0,0,1,231.21,217Zm-.528.868V217a.093.093,0,0,0-.093-.092h-1.948a.093.093,0,0,0-.093.092v.868a.092.092,0,0,0,.093.092h1.948A.092.092,0,0,0,230.682,217.869Z" transform="translate(-214.865 -203.916)"/>
    <path id="Path_419" data-name="Path 419" class="cls-5" d="M239.155,323.381v.868a.092.092,0,0,1-.093.092h-1.948a.092.092,0,0,1-.093-.092v-.868a.092.092,0,0,1,.093-.091h1.948A.092.092,0,0,1,239.155,323.381Z" transform="translate(-223.337 -304.654)"/>
    <path id="Path_420" data-name="Path 420" class="cls-5" d="M239.155,274.8v.868a.092.092,0,0,1-.093.091h-1.948a.092.092,0,0,1-.093-.091V274.8a.092.092,0,0,1,.093-.092h1.948A.092.092,0,0,1,239.155,274.8Z" transform="translate(-223.337 -258.874)"/>
    <path id="Path_421" data-name="Path 421" class="cls-5" d="M239.155,225.482v.868a.092.092,0,0,1-.093.092h-1.948a.092.092,0,0,1-.093-.092v-.868a.093.093,0,0,1,.093-.092h1.948A.093.093,0,0,1,239.155,225.482Z" transform="translate(-223.337 -212.397)"/>
    <path id="Path_422" data-name="Path 422" class="cls-3" d="M246.293,107.46a.259.259,0,1,1,0,.519h-1.079a.259.259,0,1,1,0-.519Z" transform="translate(-230.802 -101.265)"/>
    <path id="Path_423" data-name="Path 423" class="cls-3" d="M246.293,128.32a.259.259,0,1,1,0,.519h-1.079a.259.259,0,1,1,0-.519Z" transform="translate(-230.802 -120.923)"/>
    <path id="Path_424" data-name="Path 424" class="cls-3" d="M246.293,149.17a.259.259,0,1,1,0,.519h-1.079a.259.259,0,1,1,0-.519Z" transform="translate(-230.802 -140.571)"/>
    <path id="Path_425" data-name="Path 425" class="cls-3" d="M246.293,170.02a.259.259,0,1,1,0,.519h-1.079a.259.259,0,1,1,0-.519Z" transform="translate(-230.802 -160.219)"/>
    <path id="Path_426" data-name="Path 426" class="cls-7" d="M76.258,28.6V45.577a1.215,1.215,0,0,1-1.224,1.2H72.054a1.215,1.215,0,0,1-1.224-1.2V28.6a1.215,1.215,0,0,1,1.224-1.2h2.981A1.215,1.215,0,0,1,76.258,28.6Z" transform="translate(-66.892 -25.821)"/>
  </g>
</svg>
