<svg xmlns="http://www.w3.org/2000/svg"  viewBox="0 0 64 64" width="25px" height="25px"><linearGradient id="2b~lubrdMqRoWt9bZQfTAa" x1="37.5" x2="37.5" y1="17.75" y2="28.132" gradientUnits="userSpaceOnUse" spreadMethod="reflect"><stop offset="0" stop-color="#6dc7ff"/><stop offset="1" stop-color="#e6abff"/></linearGradient><path fill="url(#2b~lubrdMqRoWt9bZQfTAa)" d="M33,18c4.971,0,9,4.029,9,9h-9V18z"/><linearGradient id="2b~lubrdMqRoWt9bZQfTAb" x1="32" x2="32" y1="5.5" y2="58.877" gradientUnits="userSpaceOnUse" spreadMethod="reflect"><stop offset="0" stop-color="#1a6dff"/><stop offset="1" stop-color="#c822ff"/></linearGradient><path fill="url(#2b~lubrdMqRoWt9bZQfTAb)" d="M51,44c-1.654,0-3-1.346-3-3V27c0-6.885-4.667-12.685-11-14.442V9c0-1.654-1.346-3-3-3h-2 c-1.654,0-3,1.346-3,3v3.556c-3.938,1.101-7.336,3.789-9.277,7.481C19.483,20.018,19.244,20,19,20c-4.963,0-9,4.037-9,9 c0,4.625,3.507,8.442,8,8.941V41c0,1.654-1.346,3-3,3s-3,1.346-3,3s1.346,3,3,3h9.059c0.499,4.493,4.316,8,8.941,8 s8.442-3.507,8.941-8H51c1.654,0,3-1.346,3-3S52.654,44,51,44z M31,9c0-0.552,0.448-1,1-1h2c0.552,0,1,0.448,1,1v3.149 c-0.33-0.044-0.663-0.076-1-0.099V10c0-0.553-0.447-1-1-1s-1,0.447-1,1v2.036c-0.336,0.023-0.669,0.059-1,0.104V9z M12,29 c0-3.859,3.141-7,7-7s7,3.141,7,7v7h-7C15.141,36,12,32.859,12,29z M20,41v-3h8v-9c0-3.993-2.615-7.382-6.221-8.556 C24.094,16.498,28.381,14,33,14c7.168,0,13,5.832,13,13.001V41c0,1.13,0.391,2.162,1.026,3H18.974C19.609,43.162,20,42.13,20,41z M33,56c-3.519,0-6.432-2.614-6.92-6h2.021c0.465,2.279,2.484,4,4.899,4s4.434-1.721,4.899-4h2.021C39.432,53.386,36.519,56,33,56z M30.184,50h5.631c-0.414,1.161-1.514,2-2.816,2S30.598,51.161,30.184,50z M51,48H15c-0.552,0-1-0.448-1-1s0.448-1,1-1h36 c0.552,0,1,0.448,1,1S51.552,48,51,48z"/><linearGradient id="2b~lubrdMqRoWt9bZQfTAc" x1="19" x2="19" y1="5.5" y2="58.877" gradientUnits="userSpaceOnUse" spreadMethod="reflect"><stop offset="0" stop-color="#1a6dff"/><stop offset="1" stop-color="#c822ff"/></linearGradient><path fill="url(#2b~lubrdMqRoWt9bZQfTAc)" d="M23,29c0-2.206-1.794-4-4-4s-4,1.794-4,4s1.794,4,4,4S23,31.206,23,29z M17,29 c0-1.103,0.897-2,2-2s2,0.897,2,2s-0.897,2-2,2S17,30.103,17,29z"/><linearGradient id="2b~lubrdMqRoWt9bZQfTAd" x1="37.5" x2="37.5" y1="5.5" y2="58.877" gradientUnits="userSpaceOnUse" spreadMethod="reflect"><stop offset="0" stop-color="#1a6dff"/><stop offset="1" stop-color="#c822ff"/></linearGradient><path fill="url(#2b~lubrdMqRoWt9bZQfTAd)" d="M33 40H42V42H33z"/><linearGradient id="2b~lubrdMqRoWt9bZQfTAe" x1="38.5" x2="38.5" y1="5.5" y2="58.877" gradientUnits="userSpaceOnUse" spreadMethod="reflect"><stop offset="0" stop-color="#1a6dff"/><stop offset="1" stop-color="#c822ff"/></linearGradient><path fill="url(#2b~lubrdMqRoWt9bZQfTAe)" d="M35 36H42V38H35z"/><linearGradient id="2b~lubrdMqRoWt9bZQfTAf" x1="39.5" x2="39.5" y1="5.5" y2="58.877" gradientUnits="userSpaceOnUse" spreadMethod="reflect"><stop offset="0" stop-color="#1a6dff"/><stop offset="1" stop-color="#c822ff"/></linearGradient><path fill="url(#2b~lubrdMqRoWt9bZQfTAf)" d="M37 32H42V34H37z"/></svg>