<svg id="ART" xmlns="http://www.w3.org/2000/svg" xmlns:xlink="http://www.w3.org/1999/xlink" viewBox="0 0 48 48"><defs><style>.cls-1{fill:url(#linear-gradient);}.cls-2{fill:url(#linear-gradient-2);}.cls-3{fill:url(#linear-gradient-3);}.cls-4{fill:url(#linear-gradient-4);}.cls-5{fill:url(#linear-gradient-5);}.cls-6{fill:url(#linear-gradient-6);}.cls-7{fill:url(#linear-gradient-7);}.cls-8{fill:url(#linear-gradient-8);}.cls-9{fill:url(#linear-gradient-9);}.cls-10{fill:url(#linear-gradient-10);}.cls-11{fill:url(#linear-gradient-11);}.cls-12{fill:url(#linear-gradient-12);}.cls-13{fill:url(#linear-gradient-13);}.cls-14{fill:url(#linear-gradient-14);}.cls-15{fill:url(#linear-gradient-15);}.cls-16{fill:url(#linear-gradient-16);}</style><linearGradient id="linear-gradient" x1="24" y1="55.33" x2="24" y2="-7.99" gradientUnits="userSpaceOnUse"><stop offset="0" stop-color="#f3c57a"/><stop offset="0.49" stop-color="#f39369"/><stop offset="1" stop-color="#e94867"/></linearGradient><linearGradient id="linear-gradient-2" x1="31.71" y1="58.75" x2="31.71" y2="20.3" xlink:href="#linear-gradient"/><linearGradient id="linear-gradient-3" x1="24" y1="32.37" x2="24" y2="-20.79" gradientUnits="userSpaceOnUse"><stop offset="0" stop-color="#273a9b"/><stop offset="0.56" stop-color="#202f65"/><stop offset="1" stop-color="#021e2f"/></linearGradient><linearGradient id="linear-gradient-4" x1="24" y1="11.17" x2="24" y2="39.95" xlink:href="#linear-gradient-3"/><linearGradient id="linear-gradient-5" x1="24" y1="38" x2="24" y2="-26.04" gradientUnits="userSpaceOnUse"><stop offset="0" stop-color="#fff"/><stop offset="0.41" stop-color="#cce2e6"/><stop offset="1" stop-color="#8fa1bb"/></linearGradient><linearGradient id="linear-gradient-6" y1="19.25" x2="24" y2="60.2" xlink:href="#linear-gradient-5"/><linearGradient id="linear-gradient-7" x1="24" y1="17.94" x2="24" y2="32.48" xlink:href="#linear-gradient-3"/><linearGradient id="linear-gradient-8" x1="24" y1="34.87" x2="24" y2="14.67" xlink:href="#linear-gradient-3"/><linearGradient id="linear-gradient-9" x1="24" y1="32.64" x2="24" y2="24.62" xlink:href="#linear-gradient-3"/><linearGradient id="linear-gradient-10" x1="20.93" y1="30.8" x2="20.93" y2="23.14" xlink:href="#linear-gradient"/><linearGradient id="linear-gradient-11" x1="27.07" y1="30.8" x2="27.07" y2="23.14" xlink:href="#linear-gradient"/><linearGradient id="linear-gradient-12" x1="20.93" y1="28.17" x2="20.93" y2="20.96" xlink:href="#linear-gradient"/><linearGradient id="linear-gradient-13" x1="27.07" y1="28.17" x2="27.07" y2="20.96" xlink:href="#linear-gradient"/><linearGradient id="linear-gradient-14" y1="29.62" x2="24" y2="24.42" xlink:href="#linear-gradient"/><linearGradient id="linear-gradient-15" y1="32.22" x2="24" y2="24.27" xlink:href="#linear-gradient"/><linearGradient id="linear-gradient-16" x1="10.4" y1="52.75" x2="10.4" y2="25.73" xlink:href="#linear-gradient"/></defs><title>infected, mail, message, virus, lethal, email</title><path class="cls-1" d="M27.14,5.24a5.4,5.4,0,0,0-6.28,0L5.1,16.5A5,5,0,0,0,3,20.58V39.37A5.63,5.63,0,0,0,8.63,45H39.37A5.63,5.63,0,0,0,45,39.37V20.58a5,5,0,0,0-2.1-4.08Z"/><path class="cls-2" d="M36.25,16.25,20.49,27.51a5,5,0,0,0-2.07,3.62,5,5,0,0,0,2.07,3.62l10.68,7.63A14.1,14.1,0,0,0,39.37,45h0A5.63,5.63,0,0,0,45,39.37V20.58a5,5,0,0,0-1.94-3.95l-.54-.38A5.4,5.4,0,0,0,36.25,16.25Z"/><path class="cls-3" d="M45,20.12A5,5,0,0,0,42.9,16.5L27.14,5.24a5.4,5.4,0,0,0-6.28,0L5.1,16.5A5,5,0,0,0,3,20.12,5,5,0,0,0,5.1,23.74L20.86,35a5.4,5.4,0,0,0,6.28,0L42.9,23.74A5,5,0,0,0,45,20.12Z"/><path class="cls-4" d="M42.9,20.74,27.14,32a5.4,5.4,0,0,1-6.28,0L5.1,20.74a5,5,0,0,1-1.69-2.12A5,5,0,0,0,3,20.12,5,5,0,0,0,5.1,23.74L20.86,35a5.4,5.4,0,0,0,6.28,0L42.9,23.74A5,5,0,0,0,45,20.12a5,5,0,0,0-.38-1.5A5,5,0,0,1,42.9,20.74Z"/><path class="cls-5" d="M33.82,16.5H14.18A2.18,2.18,0,0,0,12,18.68v10L20.86,35a5.4,5.4,0,0,0,6.28,0L36,28.67v-10A2.18,2.18,0,0,0,33.82,16.5Z"/><path class="cls-6" d="M36,25.67,27.14,32a5.4,5.4,0,0,1-6.28,0L12,25.67v3L20.86,35a5.4,5.4,0,0,0,6.28,0L36,28.67Z"/><path class="cls-7" d="M26.32,19.64H22.21c-3.18,0-5.49,2-5.69,4.61a5,5,0,0,0,3,5,1.19,1.19,0,0,1,.71,1.1v1c0,.49.28.77.62.77h.39a.62.62,0,0,0,.62-.62h0a.62.62,0,1,1,1.25,0h0a.62.62,0,0,0,.62.62h.47a.62.62,0,0,0,.62-.62h0a.62.62,0,1,1,1.25,0h0a.62.62,0,0,0,.62.62h.39a.62.62,0,0,0,.62-.62V30.32a1.19,1.19,0,0,1,.71-1.1,5,5,0,0,0,3-5A5.1,5.1,0,0,0,26.32,19.64Z"/><path class="cls-8" d="M28.49,29.2a5,5,0,0,0,2.9-3.69,5.14,5.14,0,0,0-5.07-4H26.1a6.27,6.27,0,0,0-2.66.49,2,2,0,0,1-.83.18h-.12a2,2,0,0,1-3.21.81A1.91,1.91,0,0,1,18,23a4.65,4.65,0,0,0-1.38,2.54,5,5,0,0,0,2.89,3.64,1.22,1.22,0,0,1,.75,1.11v1c0,.49.28.77.62.77h.39a.62.62,0,0,0,.62-.62.62.62,0,1,1,1.25,0,.62.62,0,0,0,.62.62h.47a.62.62,0,0,0,.62-.62.62.62,0,1,1,1.25,0,.62.62,0,0,0,.62.62h.39a.62.62,0,0,0,.62-.62V30.32A1.22,1.22,0,0,1,28.49,29.2Z"/><path class="cls-9" d="M23.12,31.38a.59.59,0,0,1,0,.11.62.62,0,0,0,.62.62h.47a.62.62,0,0,0,.62-.62.59.59,0,0,1,0-.11v-3H23.12Z"/><circle class="cls-10" cx="20.93" cy="26.53" r="1.17"/><circle class="cls-11" cx="27.07" cy="26.53" r="1.17"/><path class="cls-12" d="M20.93,26a1.17,1.17,0,0,0-1.13.87,1.17,1.17,0,0,0,2.26,0A1.17,1.17,0,0,0,20.93,26Z"/><path class="cls-13" d="M27.07,26a1.17,1.17,0,0,0-1.13.87,1.17,1.17,0,0,0,2.26,0A1.17,1.17,0,0,0,27.07,26Z"/><path class="cls-14" d="M24.47,28.68l-.11,0a1.86,1.86,0,0,0-.7,0l-.11,0a.35.35,0,0,1-.35-.55l.53-.74a.35.35,0,0,1,.57,0l.53.74A.35.35,0,0,1,24.47,28.68Z"/><path class="cls-15" d="M23.21,28.55l.51-.71a.35.35,0,0,1,.57,0l.51.71a.34.34,0,0,0,0-.42l-.53-.74a.35.35,0,0,0-.57,0l-.53.74A.34.34,0,0,0,23.21,28.55Z"/><circle class="cls-16" cx="10.4" cy="38.02" r="2.02"/></svg>