<?xml version="1.0" encoding="utf-8"?>
<!-- Generator: Adobe Illustrator 16.0.0, SVG Export Plug-In . SVG Version: 6.00 Build 0)  -->
<!DOCTYPE svg PUBLIC "-//W3C//DTD SVG 1.1//EN" "http://www.w3.org/Graphics/SVG/1.1/DTD/svg11.dtd">
<svg version="1.1" id="Layer_1" xmlns="http://www.w3.org/2000/svg" xmlns:xlink="http://www.w3.org/1999/xlink" x="0px" y="0px"
	 width="512px" height="429px" viewBox="0 42.5 512 429" enable-background="new 0 42.5 512 429" xml:space="preserve">
<path d="M255.348,90.508c4.175,0,7.559-3.384,7.559-7.56V55.491c0-4.175-3.384-7.56-7.559-7.56s-7.56,3.384-7.56,7.56v27.458
	C247.789,87.124,251.174,90.508,255.348,90.508L255.348,90.508z"/>
<path d="M202.606,98.015c1.476,1.475,3.41,2.213,5.344,2.213c1.935,0,3.87-0.738,5.346-2.215c2.951-2.952,2.95-7.738-0.002-10.69
	l-19.447-19.439c-2.952-2.951-7.738-2.951-10.69,0.002c-2.951,2.952-2.95,7.738,0.002,10.69L202.606,98.015z"/>
<path d="M302.774,100.228c1.935,0,3.868-0.738,5.344-2.213l19.446-19.439c2.953-2.952,2.954-7.738,0.002-10.69
	c-2.95-2.952-7.737-2.954-10.689-0.002l-19.445,19.439c-2.953,2.952-2.955,7.738-0.003,10.69
	C298.904,99.49,300.839,100.228,302.774,100.228L302.774,100.228z"/>
<path d="M294.1,301.332h19.106c4.175,0,7.559-3.385,7.559-7.559c0-4.176-3.384-7.561-7.559-7.561H294.1
	c-4.175,0-7.559,3.385-7.559,7.561C286.541,297.947,289.926,301.332,294.1,301.332z"/>
<path d="M493.092,358.333v-59.86c0.247-23.064-12.198-38.656-33.295-41.709c-20.954-3.024-26.147-4.501-33.539-13.282
	c-0.027-0.032-0.055-0.064-0.082-0.096l-52.358-60.13c-0.073-0.084-0.147-0.167-0.226-0.247
	c-15.618-16.411-22.082-23.204-40.062-23.204h-48.371v-16.102c0-17.215-13.997-31.22-31.201-31.22h-2.353
	c-17.22,0-31.23,14.005-31.23,31.22v16.102h-92.423c-4.175,0-7.56,3.384-7.56,7.559s3.384,7.56,7.56,7.56h119.842
	c-0.001,0.054-0.008,0.106-0.008,0.161V357.65h-74.818c-10.9-9.973-25.402-16.067-41.303-16.067c-15.9,0-30.403,6.095-41.303,16.067
	H34.168V185.329c0-5.64,4.705-10.405,10.271-10.405h48.873c4.175,0,7.559-3.384,7.559-7.56s-3.384-7.559-7.559-7.559H44.44
	c-14,0-25.39,11.45-25.39,25.524V358.3C8.147,360.844,0,370.633,0,382.296c0,13.59,11.06,24.646,24.653,24.646h45.916
	c2.12,31.854,28.705,57.126,61.097,57.126c32.394,0,58.977-25.271,61.098-57.126h57.057c4.175,0,7.559-3.385,7.559-7.56
	c0-4.176-3.384-7.56-7.559-7.56h-57.915c-1.242-6.81-3.609-13.226-6.909-19.055h149.891c-3.3,5.828-5.668,12.245-6.911,19.055
	h-43.544c-4.176,0-7.56,3.384-7.56,7.56c0,4.175,3.384,7.56,7.56,7.56h42.684c2.121,31.854,28.718,57.126,61.126,57.126
	c32.394,0,58.977-25.271,61.097-57.126h38.007c13.594,0,24.652-11.057,24.652-24.646C512,370.684,503.923,360.928,493.092,358.333
	L493.092,358.333z M477.975,317.582h-22.858c-1.615,0-2.93-1.313-2.93-2.926v-7.877c0-1.57,1.342-2.896,2.93-2.896h22.858V317.582z
	 M235.495,143.703c0-8.878,7.227-16.102,16.111-16.102h2.353c8.868,0,16.084,7.223,16.084,16.102v16.102h-34.547L235.495,143.703
	L235.495,143.703z M262.33,174.923h71.201c11.043,0,13.478,2.085,28.994,18.386l52.206,59.957
	c11.28,13.376,21.894,15.43,42.902,18.461c12.143,1.756,17.367,9.057,19.324,17.036h-21.844c-9.951,0-18.048,8.082-18.048,18.016
	v7.878c0,9.949,8.097,18.043,18.048,18.043h22.858v24.949h-48.428c-10.899-9.973-25.401-16.066-41.303-16.066
	c-15.908,0-30.417,6.094-41.322,16.066h-84.582V175.083C262.338,175.029,262.331,174.977,262.33,174.923L262.33,174.923z
	 M15.119,382.296c0-5.253,4.277-9.527,9.535-9.527h0.038c0.613,0.161,1.254,0.255,1.917,0.255s1.304-0.094,1.917-0.255h49.809
	c-3.299,5.828-5.666,12.245-6.908,19.055H24.653C19.396,391.823,15.119,387.549,15.119,382.296L15.119,382.296z M131.666,448.95
	c-25.437,0-46.131-20.686-46.131-46.11c0-25.439,20.694-46.139,46.131-46.139c25.438,0,46.131,20.698,46.131,46.139
	C177.798,428.265,157.104,448.95,131.666,448.95L131.666,448.95z M388.243,448.95c-25.452,0-46.16-20.686-46.16-46.11
	c0-25.439,20.708-46.139,46.16-46.139c25.438,0,46.132,20.698,46.132,46.139C434.375,428.265,413.681,448.95,388.243,448.95
	L388.243,448.95z M487.348,391.823h-38.865c-1.242-6.81-3.609-13.226-6.908-19.055h42.041c0.613,0.161,1.255,0.255,1.918,0.255
	c0.657,0,1.292-0.093,1.9-0.251c5.218,0.047,9.448,4.3,9.448,9.523C496.882,387.549,492.605,391.823,487.348,391.823
	L487.348,391.823z"/>
<path d="M388.243,373.943c-15.923,0-28.876,12.963-28.876,28.897c0,15.918,12.953,28.868,28.876,28.868s28.876-12.95,28.876-28.868
	C417.119,386.906,404.166,373.943,388.243,373.943z M388.243,416.59c-7.586,0-13.759-6.169-13.759-13.75
	c0-7.598,6.173-13.777,13.759-13.777s13.759,6.182,13.759,13.777C402.002,410.421,395.829,416.59,388.243,416.59z"/>
<path d="M131.666,373.943c-15.922,0-28.876,12.963-28.876,28.897c0,15.918,12.955,28.868,28.876,28.868
	c15.923,0,28.877-12.95,28.877-28.868C160.543,386.906,147.59,373.943,131.666,373.943z M131.666,416.59
	c-7.586,0-13.757-6.169-13.757-13.75c0-7.598,6.171-13.777,13.757-13.777s13.759,6.182,13.759,13.777
	C145.425,410.421,139.252,416.59,131.666,416.59z"/>
<path d="M308.183,272.572h61.603c0.128,0,0.255-0.002,0.381-0.01c5.427-0.285,9.677-4.471,9.677-9.528v-3.054
	c0-5.568-2.562-8.331-5.273-11.255c-1.142-1.232-2.563-2.765-4.374-5.024c-0.002-0.002-0.004-0.004-0.006-0.007l-25.75-32.04
	c-4.977-6.201-10.449-10.331-20.98-10.331h-25.4c-5.59,0-10.219,4.056-10.535,9.231c-0.009,0.152-0.014,0.305-0.014,0.458
	l0.082,43.021C287.594,262.95,295.465,272.572,308.183,272.572z M323.46,215.875c4.923,0,6.641,1.16,9.636,4.892l25.752,32.041
	c1.833,2.286,3.335,3.949,4.501,5.214h-55.166c-4.268,0-6.04-2.597-6.04-4l-0.071-38.146H323.46z"/>
<path d="M87.794,252.713v27.147c0,6.888,5.604,12.489,12.492,12.489h13.333v13.324c0,6.888,5.604,12.491,12.492,12.491h27.157
	c6.903,0,12.521-5.604,12.521-12.491V292.35h13.305c6.903,0,12.521-5.604,12.521-12.489v-27.147c0-6.902-5.617-12.519-12.521-12.519
	h-13.306v-13.296c0-6.902-5.617-12.519-12.521-12.519H126.11c-6.888,0-12.492,5.616-12.492,12.519v13.296h-13.333
	C93.397,240.194,87.794,245.811,87.794,252.713L87.794,252.713z M102.913,255.314h18.266c4.175,0,7.56-3.384,7.56-7.559V229.5
	h21.932v18.255c0,4.175,3.384,7.559,7.56,7.559h18.266v21.917h-18.266c-4.175,0-7.56,3.385-7.56,7.561v18.254h-21.932v-18.254
	c0-4.176-3.384-7.561-7.56-7.561h-18.266V255.314z"/>
</svg>
