<?xml version="1.0" encoding="utf-8"?>
<!-- Generator: Adobe Illustrator 16.0.0, SVG Export Plug-In . SVG Version: 6.00 Build 0)  -->
<!DOCTYPE svg PUBLIC "-//W3C//DTD SVG 1.1//EN" "http://www.w3.org/Graphics/SVG/1.1/DTD/svg11.dtd">
<svg version="1.1" id="Capa_1" xmlns="http://www.w3.org/2000/svg" xmlns:xlink="http://www.w3.org/1999/xlink" x="0px" y="0px"
	 width="612px" height="612px" viewBox="0 -100.5 612 612" enable-background="new 0 -100.5 612 612" xml:space="preserve">
<g>
	<g>
		<path d="M411.445,230.31l-52.096-23.152c-3.68-1.636-6.057-5.294-6.057-9.32v-14.306c17.5-13.943,28.748-35.415,28.748-59.477
			v-20.138c5.765-3.187,9.581-9.342,9.581-16.235v-1.955c0-41.927-34.11-76.038-76.037-76.038h-19.164
			c-41.927,0-76.038,34.111-76.038,76.038v17.732c0,6.061,2.608,11.55,7.154,15.063c0.771,0.596,1.583,1.119,2.428,1.572v3.959
			c0,24.063,11.247,45.533,28.745,59.475v14.308c0,4.026-2.377,7.685-6.057,9.32l-52.094,23.152
			c-17.061,7.581-28.085,24.545-28.085,43.216v118.818c0,4.951,4.014,8.965,8.965,8.965s8.965-4.014,8.965-8.965V273.524
			c0-1.038,0.074-2.065,0.182-3.084l24.004,24.005c3.735,3.735,5.794,8.703,5.794,13.986v83.911c0,4.951,4.014,8.965,8.965,8.965
			c4.951,0,8.965-4.014,8.965-8.965v-83.911c0-10.072-3.922-19.542-11.045-26.665l-28.617-28.618
			c2.578-2.675,5.672-4.893,9.191-6.456l51.215-22.764l37.981,37.981v130.432c0,4.951,4.014,8.965,8.965,8.965
			s8.965-4.014,8.965-8.965v-130.43l37.981-37.98l51.215,22.762c3.519,1.563,6.612,3.781,9.189,6.458l-28.616,28.616
			c-7.123,7.123-11.045,16.594-11.045,26.665v83.911c0,4.951,4.015,8.965,8.965,8.965s8.965-4.014,8.965-8.965v-83.911
			c0-5.282,2.058-10.251,5.794-13.986l24.003-24.003c0.107,1.019,0.182,2.043,0.182,3.081v118.818c0,4.951,4.016,8.965,8.966,8.965
			s8.965-4.014,8.965-8.965V273.524C439.529,254.855,428.506,237.892,411.445,230.31z M306.002,245.521l-33.327-33.327
			c2.534-4.265,3.965-9.197,3.965-14.357v-3.647c9.041,3.799,18.96,5.903,29.363,5.903c10.402,0,20.321-2.104,29.36-5.901v3.646
			c0,5.161,1.431,10.093,3.966,14.358L306.002,245.521z M306.003,182.161c-32.041,0.001-58.108-26.065-58.108-58.106v-4.033
			c5.594-2.217,11.054-5.746,16.281-10.568c3.637-3.357,3.866-9.03,0.507-12.668c-3.357-3.637-9.028-3.866-12.668-0.508
			c-4.483,4.14-8.963,6.813-13.312,7.949c-0.105,0.026-0.183,0.039-0.238,0.043c-0.064-0.125-0.151-0.388-0.151-0.811V85.727
			c0-32.039,26.067-58.107,58.107-58.107h19.163c32.042,0,58.108,26.068,58.108,58.107v1.955c0,0.291-0.176,0.543-0.404,0.588
			c-53.684,10.604-80.608-9.379-89.693-18.463c-3.501-3.502-9.177-3.502-12.677,0c-3.501,3.5-3.501,9.178,0,12.676
			c27.839,27.84,68.462,28.342,93.192,25.371v16.199C364.11,156.093,338.043,182.161,306.003,182.161z"/>
	</g>
</g>
<g>
	<g>
		<path d="M161.658,181.548v-19.167c0-23.388-12.154-43.977-30.467-55.824c1.131-3.627,1.721-7.428,1.721-11.248
			c0-20.793-16.916-37.711-37.71-37.711c-20.793,0-37.709,16.918-37.709,37.711c0,3.868,0.585,7.631,1.719,11.25
			c-18.313,11.848-30.465,32.436-30.465,55.821v19.163c0,22.648,11.395,42.674,28.745,54.678v19.714c0,3.89-2.16,7.385-5.637,9.123
			l-31.007,15.503c-12.86,6.432-20.847,19.355-20.847,33.731v78.053c0,4.951,4.014,8.965,8.965,8.965
			c4.951,0,8.965-4.014,8.965-8.965V318.17l14.604,14.604c3.735,3.735,5.793,8.702,5.793,13.986v45.583
			c0,4.951,4.014,8.965,8.965,8.965s8.965-4.014,8.965-8.965v-45.583c0-10.073-3.923-19.542-11.044-26.665L24.887,299.77
			c-0.098-0.099-0.203-0.183-0.303-0.274c1.275-1.126,2.706-2.105,4.281-2.896l31.008-15.504c1.589-0.795,3.067-1.731,4.445-2.774
			l21.918,21.92v92.104c0,4.95,4.014,8.965,8.965,8.965c4.951,0,8.965-4.015,8.965-8.965V300.24l21.92-21.92
			c1.379,1.044,2.857,1.98,4.445,2.774l8.55,4.275c1.287,0.645,2.655,0.949,4.003,0.949c3.288,0,6.455-1.816,8.025-4.957
			c2.215-4.43,0.419-9.813-4.009-12.027l-8.55-4.275c-3.479-1.738-5.639-5.233-5.639-9.12v-19.716
			C150.263,224.222,161.658,204.193,161.658,181.548z M95.202,75.527c10.907,0,19.78,8.875,19.78,19.781
			c0,1.2-0.107,2.379-0.313,3.531c-6.161-1.891-12.696-2.916-19.467-2.916c-6.762,0-13.288,1.021-19.439,2.907
			c-0.207-1.153-0.34-2.325-0.34-3.524C75.422,84.4,84.294,75.527,95.202,75.527z M95.202,113.855
			c26.757,0,48.526,21.77,48.526,48.526v3.249c-37.324,11.428-59.567-16.965-60.518-18.209c-1.56-2.079-3.944-3.379-6.536-3.563
			c-2.591-0.183-5.137,0.766-6.975,2.603c-8.557,8.558-16.939,12.685-22.992,14.677C47.371,134.954,68.862,113.855,95.202,113.855z
			 M95.202,283.848l-20.716-20.716c0.605-2.312,0.936-4.722,0.936-7.195v-10.941c6.25,1.953,12.895,3.006,19.78,3.006
			c6.885,0,13.53-1.053,19.78-3.006v10.941c0,2.475,0.331,4.886,0.936,7.195L95.202,283.848z M95.202,230.07
			c-26.757,0-48.526-21.771-48.526-48.526v-1.856c7.149-1.643,17.749-5.459,28.807-14.353c3.912,3.69,9.504,8.22,16.624,12.103
			c8.422,4.595,20.054,8.844,34.262,8.844c5.399,0,11.176-0.627,17.283-2.069C142.261,209.733,121.064,230.07,95.202,230.07z"/>
	</g>
</g>
<g>
	<g>
		<path d="M591.157,261.399l-50.171-25.087c-3.479-1.738-5.639-5.233-5.639-9.12v-12.705c11.744-10.427,19.164-25.622,19.164-42.523
			v-10.205c0.206,0,0.41,0.007,0.616,0.007c4.951,0,8.965-4.015,8.965-8.966v-19.163c0-31.359-25.514-56.875-56.874-56.875h-19.163
			c-31.359,0-56.874,25.514-56.874,56.875V152.8c0,4.951,4.015,8.966,8.966,8.966c0.072,0,0.289-0.002,0.615-0.017v10.214
			c0,16.903,7.421,32.098,19.165,42.524v12.705c0,3.888-2.16,7.383-5.639,9.12c-4.429,2.215-6.224,7.6-4.009,12.027
			c1.569,3.143,4.735,4.958,8.024,4.958c1.348,0,2.714-0.305,4.001-0.947c1.59-0.795,3.067-1.732,4.446-2.774l21.919,21.919v120.851
			c0,4.95,4.014,8.965,8.965,8.965s8.965-4.015,8.965-8.965V271.494l21.92-21.92c1.379,1.044,2.855,1.98,4.444,2.774l48.548,24.274
			l-14.726,14.726c-7.121,7.123-11.044,16.593-11.044,26.665v74.329c0,4.951,4.014,8.965,8.965,8.965
			c4.95,0,8.965-4.014,8.965-8.965v-74.329c0-5.283,2.058-10.251,5.793-13.987l13.948-13.947c0.423,1.622,0.655,3.313,0.655,5.049
			v97.216c0,4.951,4.014,8.965,8.965,8.965s8.965-4.014,8.965-8.965v-97.216C612.002,280.753,604.015,267.829,591.157,261.399z
			 M449.11,141.991v-8.355h0.002c0-21.474,17.471-38.944,38.943-38.944h19.163c21.475,0,38.944,17.472,38.944,38.944v9.958
			c-38.971-2.103-62.488-17.268-62.717-17.417c-1.518-1.011-3.248-1.506-4.971-1.506c-2.313,0-4.608,0.894-6.343,2.626
			C463.558,135.875,455.153,140.003,449.11,141.991z M497.638,255.103l-20.716-20.716c0.605-2.312,0.938-4.722,0.938-7.193v-1.909
			c6.163,2.294,12.825,3.554,19.778,3.554s13.617-1.26,19.78-3.554v1.909c0,2.473,0.33,4.883,0.937,7.193L497.638,255.103z
			 M497.638,210.908c-21.474,0-38.943-17.471-38.943-38.944v-14.453l0,0c6.278-2.509,13.595-6.497,21.039-12.84
			c9.414,4.897,29.109,13.365,56.851,16.162v11.131C536.583,193.438,519.112,210.908,497.638,210.908z"/>
	</g>
</g>
</svg>
