<svg version="1.1" xmlns="http://www.w3.org/2000/svg" xmlns:xlink="http://www.w3.org/1999/xlink" width="512.000000pt" height="512.000000pt" viewBox="0,0,256,256"><g fill-opacity="0" fill="#000000" fill-rule="nonzero" stroke="none" stroke-width="1" stroke-linecap="butt" stroke-linejoin="miter" stroke-miterlimit="10" stroke-dasharray="" stroke-dashoffset="0" font-family="none" font-weight="none" font-size="none" text-anchor="none" style="mix-blend-mode: normal"><g transform="translate(0.00003,-0.09556) scale(0.5,0.5)"><g transform="translate(0,512) scale(0.1,-0.1)"><path d="M2963,5105c-108,-30 -196,-90 -248,-170c-24,-37 -44,-52 -101,-79c-39,-18 -89,-50 -111,-69c-52,-47 -98,-135 -114,-217c-7,-39 -23,-80 -40,-102c-23,-33 -65,-124 -83,-180c-5,-15 -18,-18 -94,-18c-351,0 -698,-178 -918,-469c-72,-95 -151,-249 -183,-355c-52,-170 -51,-136 -51,-1808c0,-1186 3,-1563 12,-1583c26,-57 -2,-55 873,-55c883,0 849,-2 875,59c8,20 11,70 8,153c-3,113 -6,129 -34,188c-39,82 -106,150 -189,191l-65,32v983v984l53,-21c181,-73 301,-89 660,-89h287v-1206v-1206l34,-34l34,-34h226c247,0 271,5 294,55c9,19 12,154 12,500c0,509 -1,514 -51,541c-45,23 -78,17 -115,-20l-34,-34v-421v-421h-100h-100v1140v1140h53c30,0 75,6 100,14l47,14v-315v-315l34,-34c38,-38 70,-43 115,-19c51,26 52,32 49,575l-3,505l-26,56c-34,72 -96,134 -168,168l-56,26l-475,6c-531,6 -527,6 -597,75c-58,59 -76,132 -53,216l11,37l103,-6c129,-7 224,12 339,69c74,37 100,59 267,227c132,132 196,205 223,251c110,190 115,412 14,613c-39,79 -58,101 -214,248c-7,8 -31,37 -52,65c-44,58 -123,114 -196,139c-70,24 -188,28 -252,10zM3144,4908c55,-16 138,-99 154,-154c34,-115 -16,-230 -123,-287c-33,-18 -58,-21 -137,-22h-97l-46,-46c-80,-81 -174,-86 -254,-13c-110,99 -55,273 94,299c65,12 89,30 114,84c25,57 93,122 143,138c46,15 103,15 152,1zM3524,4500c24,-61 32,-175 16,-241c-25,-108 -64,-164 -235,-334c-106,-106 -178,-170 -214,-189c-270,-144 -586,8 -642,309c-11,59 -5,147 12,193l9,23l43,-34c147,-120 330,-124 482,-12c22,16 50,24 102,29c92,8 167,36 238,89c59,43 125,131 145,193c14,41 20,37 44,-26zM2244,4058c2,-7 9,-42 15,-78c19,-101 83,-221 160,-300c36,-36 81,-77 98,-91l33,-24l-20,-55c-63,-179 28,-402 201,-490c100,-52 114,-53 609,-59c426,-6 468,-8 493,-24c89,-58 86,-181 -5,-237c-32,-19 -52,-20 -463,-20c-464,0 -543,6 -680,54c-111,38 -162,63 -249,120c-160,106 -276,237 -363,410c-59,118 -75,136 -128,136c-75,0 -118,-56 -95,-127c54,-167 234,-408 389,-523l60,-45l1,-242v-243h-541h-540l4,523c4,597 3,590 97,782c158,325 492,540 843,544c54,1 79,-3 81,-11zM1660,1325v-695h-220h-220v695v695h220h220zM2300,1325v-695h-220h-220v695v695h220h220zM1828,415c72,-31 122,-102 122,-175v-40h-365h-365v115v115h285c235,0 292,-3 323,-15zM2468,415c72,-31 122,-102 122,-175v-40h-219h-218l-5,68c-3,37 -14,89 -26,115l-21,47h165c126,0 173,-4 202,-15z"></path><path d="M3934,1526c-24,-24 -34,-43 -34,-66c0,-41 56,-100 94,-100c105,0 146,139 55,186c-45,23 -78,17 -115,-20z"></path></g></g></g></svg>