<?xml version="1.0" standalone="no"?>
<!DOCTYPE svg PUBLIC "-//W3C//DTD SVG 20010904//EN"
 "http://www.w3.org/TR/2001/REC-SVG-20010904/DTD/svg10.dtd">
<svg version="1.0" xmlns="http://www.w3.org/2000/svg"
 width="512.000000pt" height="512.000000pt" viewBox="0 0 512.000000 512.000000"
 preserveAspectRatio="xMidYMid meet">

<g transform="translate(0.000000,512.000000) scale(0.100000,-0.100000)"
fill="#000000" stroke="none">
<path d="M2963 5105 c-108 -30 -196 -90 -248 -170 -24 -37 -44 -52 -101 -79
-39 -18 -89 -50 -111 -69 -52 -47 -98 -135 -114 -217 -7 -39 -23 -80 -40 -102
-23 -33 -65 -124 -83 -180 -5 -15 -18 -18 -94 -18 -351 0 -698 -178 -918 -469
-72 -95 -151 -249 -183 -355 -52 -170 -51 -136 -51 -1808 0 -1186 3 -1563 12
-1583 26 -57 -2 -55 873 -55 883 0 849 -2 875 59 8 20 11 70 8 153 -3 113 -6
129 -34 188 -39 82 -106 150 -189 191 l-65 32 0 983 0 984 53 -21 c181 -73
301 -89 660 -89 l287 0 0 -1206 0 -1206 34 -34 34 -34 226 0 c247 0 271 5 294
55 9 19 12 154 12 500 0 509 -1 514 -51 541 -45 23 -78 17 -115 -20 l-34 -34
0 -421 0 -421 -100 0 -100 0 0 1140 0 1140 53 0 c30 0 75 6 100 14 l47 14 0
-315 0 -315 34 -34 c38 -38 70 -43 115 -19 51 26 52 32 49 575 l-3 505 -26 56
c-34 72 -96 134 -168 168 l-56 26 -475 6 c-531 6 -527 6 -597 75 -58 59 -76
132 -53 216 l11 37 103 -6 c129 -7 224 12 339 69 74 37 100 59 267 227 132
132 196 205 223 251 110 190 115 412 14 613 -39 79 -58 101 -214 248 -7 8 -31
37 -52 65 -44 58 -123 114 -196 139 -70 24 -188 28 -252 10z m181 -197 c55
-16 138 -99 154 -154 34 -115 -16 -230 -123 -287 -33 -18 -58 -21 -137 -22
l-97 0 -46 -46 c-80 -81 -174 -86 -254 -13 -110 99 -55 273 94 299 65 12 89
30 114 84 25 57 93 122 143 138 46 15 103 15 152 1z m380 -408 c24 -61 32
-175 16 -241 -25 -108 -64 -164 -235 -334 -106 -106 -178 -170 -214 -189 -270
-144 -586 8 -642 309 -11 59 -5 147 12 193 l9 23 43 -34 c147 -120 330 -124
482 -12 22 16 50 24 102 29 92 8 167 36 238 89 59 43 125 131 145 193 14 41
20 37 44 -26z m-1280 -442 c2 -7 9 -42 15 -78 19 -101 83 -221 160 -300 36
-36 81 -77 98 -91 l33 -24 -20 -55 c-63 -179 28 -402 201 -490 100 -52 114
-53 609 -59 426 -6 468 -8 493 -24 89 -58 86 -181 -5 -237 -32 -19 -52 -20
-463 -20 -464 0 -543 6 -680 54 -111 38 -162 63 -249 120 -160 106 -276 237
-363 410 -59 118 -75 136 -128 136 -75 0 -118 -56 -95 -127 54 -167 234 -408
389 -523 l60 -45 1 -242 0 -243 -541 0 -540 0 4 523 c4 597 3 590 97 782 158
325 492 540 843 544 54 1 79 -3 81 -11z m-584 -2733 l0 -695 -220 0 -220 0 0
695 0 695 220 0 220 0 0 -695z m640 0 l0 -695 -220 0 -220 0 0 695 0 695 220
0 220 0 0 -695z m-472 -910 c72 -31 122 -102 122 -175 l0 -40 -365 0 -365 0 0
115 0 115 285 0 c235 0 292 -3 323 -15z m640 0 c72 -31 122 -102 122 -175 l0
-40 -219 0 -218 0 -5 68 c-3 37 -14 89 -26 115 l-21 47 165 0 c126 0 173 -4
202 -15z"/>
<path d="M3934 1526 c-24 -24 -34 -43 -34 -66 0 -41 56 -100 94 -100 105 0
146 139 55 186 -45 23 -78 17 -115 -20z"/>
</g>
</svg>
